<svg width="27" height="27" viewBox="0 0 27 27" fill="none" xmlns="http://www.w3.org/2000/svg">
<path d="M2.25 13.5C2.25 9.25763 2.25 7.13587 3.5685 5.8185C4.887 4.50112 7.00763 4.5 11.25 4.5H15.75C19.9924 4.5 22.1141 4.5 23.4315 5.8185C24.7489 7.137 24.75 9.25763 24.75 13.5V15.75C24.75 19.9924 24.75 22.1141 23.4315 23.4315C22.113 24.7489 19.9924 24.75 15.75 24.75H11.25C7.00763 24.75 4.88587 24.75 3.5685 23.4315C2.25112 22.113 2.25 19.9924 2.25 15.75V13.5Z" stroke="black" stroke-width="1.5"/>
<path d="M7.875 4.5V2.8125M19.125 4.5V2.8125M2.8125 10.125H24.1875" stroke="black" stroke-width="1.5" stroke-linecap="round"/>
<path d="M20.25 19.125C20.25 19.4234 20.1315 19.7095 19.9205 19.9205C19.7095 20.1315 19.4234 20.25 19.125 20.25C18.8266 20.25 18.5405 20.1315 18.3295 19.9205C18.1185 19.7095 18 19.4234 18 19.125C18 18.8266 18.1185 18.5405 18.3295 18.3295C18.5405 18.1185 18.8266 18 19.125 18C19.4234 18 19.7095 18.1185 19.9205 18.3295C20.1315 18.5405 20.25 18.8266 20.25 19.125ZM20.25 14.625C20.25 14.9234 20.1315 15.2095 19.9205 15.4205C19.7095 15.6315 19.4234 15.75 19.125 15.75C18.8266 15.75 18.5405 15.6315 18.3295 15.4205C18.1185 15.2095 18 14.9234 18 14.625C18 14.3266 18.1185 14.0405 18.3295 13.8295C18.5405 13.6185 18.8266 13.5 19.125 13.5C19.4234 13.5 19.7095 13.6185 19.9205 13.8295C20.1315 14.0405 20.25 14.3266 20.25 14.625ZM14.625 19.125C14.625 19.4234 14.5065 19.7095 14.2955 19.9205C14.0845 20.1315 13.7984 20.25 13.5 20.25C13.2016 20.25 12.9155 20.1315 12.7045 19.9205C12.4935 19.7095 12.375 19.4234 12.375 19.125C12.375 18.8266 12.4935 18.5405 12.7045 18.3295C12.9155 18.1185 13.2016 18 13.5 18C13.7984 18 14.0845 18.1185 14.2955 18.3295C14.5065 18.5405 14.625 18.8266 14.625 19.125ZM14.625 14.625C14.625 14.9234 14.5065 15.2095 14.2955 15.4205C14.0845 15.6315 13.7984 15.75 13.5 15.75C13.2016 15.75 12.9155 15.6315 12.7045 15.4205C12.4935 15.2095 12.375 14.9234 12.375 14.625C12.375 14.3266 12.4935 14.0405 12.7045 13.8295C12.9155 13.6185 13.2016 13.5 13.5 13.5C13.7984 13.5 14.0845 13.6185 14.2955 13.8295C14.5065 14.0405 14.625 14.3266 14.625 14.625ZM9 19.125C9 19.4234 8.88147 19.7095 8.67049 19.9205C8.45952 20.1315 8.17337 20.25 7.875 20.25C7.57663 20.25 7.29048 20.1315 7.07951 19.9205C6.86853 19.7095 6.75 19.4234 6.75 19.125C6.75 18.8266 6.86853 18.5405 7.07951 18.3295C7.29048 18.1185 7.57663 18 7.875 18C8.17337 18 8.45952 18.1185 8.67049 18.3295C8.88147 18.5405 9 18.8266 9 19.125ZM9 14.625C9 14.9234 8.88147 15.2095 8.67049 15.4205C8.45952 15.6315 8.17337 15.75 7.875 15.75C7.57663 15.75 7.29048 15.6315 7.07951 15.4205C6.86853 15.2095 6.75 14.9234 6.75 14.625C6.75 14.3266 6.86853 14.0405 7.07951 13.8295C7.29048 13.6185 7.57663 13.5 7.875 13.5C8.17337 13.5 8.45952 13.6185 8.67049 13.8295C8.88147 14.0405 9 14.3266 9 14.625Z" fill="black"/>
</svg>
