<svg width="27" height="27" viewBox="0 0 27 27" fill="none" xmlns="http://www.w3.org/2000/svg">
<circle cx="13.5" cy="13.5" r="13.5" fill="#514EAA"/>
<path d="M13.5 25.3125L6.38213 16.918C6.28323 16.792 6.18535 16.6651 6.08851 16.5375C4.87326 14.9356 4.21649 12.9795 4.21876 10.9688C4.21876 8.50721 5.1966 6.14649 6.93717 4.40592C8.67774 2.66534 11.0385 1.6875 13.5 1.6875C15.9615 1.6875 18.3223 2.66534 20.0628 4.40592C21.8034 6.14649 22.7813 8.50721 22.7813 10.9688C22.7832 12.9785 22.1268 14.9336 20.9123 16.535L20.9115 16.5375C20.9115 16.5375 20.6584 16.8699 20.6204 16.9147L13.5 25.3125ZM7.43597 15.5208C7.43597 15.5208 7.63257 15.7807 7.67729 15.8363L13.5 22.7036L19.3303 15.8271C19.3674 15.7807 19.5649 15.5191 19.5657 15.5183C20.559 14.2097 21.0958 12.6116 21.0938 10.9688C21.0938 8.95476 20.2937 7.02326 18.8696 5.59916C17.4455 4.17505 15.514 3.375 13.5 3.375C11.486 3.375 9.55452 4.17505 8.13041 5.59916C6.70631 7.02326 5.90626 8.95476 5.90626 10.9688C5.90417 12.6126 6.44157 14.2118 7.43597 15.5208Z" fill="white"/>
<path d="M17.7188 15.1875H16.0312V8.4375H10.9688V15.1875H9.28125V8.4375C9.28125 7.98995 9.45904 7.56073 9.77551 7.24426C10.092 6.92779 10.5212 6.75 10.9688 6.75H16.0312C16.4788 6.75 16.908 6.92779 17.2245 7.24426C17.541 7.56073 17.7188 7.98995 17.7188 8.4375V15.1875Z" fill="white"/>
<path d="M12.6562 13.5H14.3438V15.1875H12.6562V13.5ZM12.6562 10.125H14.3438V11.8125H12.6562V10.125Z" fill="white"/>
</svg>
